<?xml version="1.0" encoding="utf-8"?>

<!DOCTYPE svg PUBLIC "-//W3C//DTD SVG 1.1//EN" "http://www.w3.org/Graphics/SVG/1.1/DTD/svg11.dtd">
<!-- Uploaded to: SVG Repo, www.svgrepo.com, Generator: SVG Repo Mixer Tools -->
<svg version="1.1" id="_x32_" xmlns="http://www.w3.org/2000/svg" xmlns:xlink="http://www.w3.org/1999/xlink" 
	 width="800px" height="800px" viewBox="0 0 512 512"  xml:space="preserve">
<style type="text/css">
<![CDATA[
	.st0{fill:#000000;}
]]>
</style>
<g>
	<path class="st0" d="M429.75,56.692c-5.641-4-12.891-5.031-19.422-2.734l-242.875,85c-30.625-1.453-51.484-9.844-65.859-19.203
		c-4.328-2.813-5.266-4.469-5.266-4.469c-2.594-2.594-3.594-6.188-2.859-9.891c0.75-3.703,3.391-6.734,6.953-7.984l217.359-76.063
		c3.266-1.156,6.891-0.641,9.703,1.359c0.25,0.188,0.469,0.438,0.703,0.625l15.906-5.75c-0.984-5.453-3.938-10.391-8.547-13.641
		c-5.641-4.016-12.891-5.031-19.422-2.75l-228.578,80c-8.563,3-14.297,11.094-14.297,20.156v5.578v352.312
		c0,0,15.063,49,94.203,52.766l242.688-84.938c17.125-6,28.609-22.171,28.609-40.328V74.114
		C438.75,67.192,435.391,60.692,429.75,56.692z"/>
	<polygon class="st0" points="123.516,106.254 133.156,110.848 352.766,33.973 343.109,29.379 	"/>
	<polygon class="st0" points="159.672,123.348 379,46.567 369.406,41.958 150.031,118.754 	"/>
</g>
</svg>